<?xml version="1.0" encoding="UTF-8"?>
<svg xmlns="http://www.w3.org/2000/svg" width="15" height="15" viewBox="0 0 15 15">
  <path fill="#B8B8B8" d="M529.782402,8.33534615 L523.143027,14.8725769 C522.958574,15.0541923 522.958574,15.3484231 523.143027,15.5300385 C523.235137,15.6209615 523.356074,15.6661923 523.476777,15.6661923 C523.597715,15.6661923 523.718418,15.6209615 523.810527,15.5300385 L530.499824,8.94365385 L537.189121,15.5300385 C537.281465,15.6209615 537.402168,15.6661923 537.522871,15.6661923 C537.643574,15.6661923 537.764512,15.6209615 537.856621,15.5300385 C538.041074,15.3484231 538.041074,15.0541923 537.856621,14.8725769 L531.21748,8.33534615 L537.861074,1.7935 C538.045527,1.61188462 538.045527,1.31765385 537.861074,1.13603846 C537.676621,0.954653846 537.377793,0.954653846 537.193574,1.13603846 L530.500059,7.72703846 L523.80584,1.13626923 C523.621387,0.954884615 523.322793,0.954884615 523.13834,1.13626923 C522.953887,1.31788462 522.953887,1.61211538 523.13834,1.79373077 L529.782402,8.33534615 Z" transform="translate(-523 -1)"/>
</svg>
